<svg width="25" height="24" viewBox="0 0 25 24" fill="none" xmlns="http://www.w3.org/2000/svg">
<path d="M6.1961 3.96558H2.97412M6.45386 3.96558L8.77369 12.3857C8.96732 13.0497 9.36948 13.6337 9.9207 14.0515C10.4719 14.4693 11.143 14.6986 11.8346 14.7055H21.2213V3.96558H6.45386ZM13.7141 18.4645C13.7141 19.3542 12.9928 20.0755 12.1031 20.0755C11.2133 20.0755 10.4921 19.3542 10.4921 18.4645C10.4921 17.5748 11.2133 16.8535 12.1031 16.8535C12.9928 16.8535 13.7141 17.5748 13.7141 18.4645ZM21.232 18.4645C21.232 19.3542 20.5108 20.0755 19.621 20.0755C18.7313 20.0755 18.01 19.3542 18.01 18.4645C18.01 17.5748 18.7313 16.8535 19.621 16.8535C20.5108 16.8535 21.232 17.5748 21.232 18.4645Z" stroke="#1C1C1E" stroke-width="1.38793" stroke-linecap="round" stroke-linejoin="round"/>
</svg>
