<svg width="375" height="375" viewBox="0 0 375 375" fill="none" xmlns="http://www.w3.org/2000/svg">
<rect width="375" height="375" rx="187.5" fill="#191919"/>
<path d="M128.455 192.484L98.8934 185.609C98.0552 185.41 97.2663 185.044 96.5743 184.533C95.8823 184.021 95.3017 183.375 94.8676 182.634C94.4334 181.892 94.1548 181.07 94.0486 180.218C93.9424 179.367 94.0107 178.502 94.2496 177.677L110.622 122.681C111.016 121.169 111.963 119.859 113.276 119.006L156.477 96.8752C157.523 96.2703 158.718 95.9681 159.927 96.0027L171.5 101L185.5 103L202 101L217.006 96.0027C218.231 96.01 219.429 96.368 220.456 97.0339L263.683 119.164C264.989 120.025 265.934 121.332 266.337 122.84L282.71 177.836C282.948 178.662 283.015 179.529 282.908 180.382C282.8 181.236 282.519 182.058 282.082 182.8C281.645 183.542 281.061 184.188 280.367 184.698C279.672 185.208 278.88 185.572 278.039 185.768L248.345 192.642" fill="white"/>
<path d="M128.455 192.484L98.8934 185.609C98.0552 185.41 97.2663 185.044 96.5743 184.533C95.8823 184.021 95.3017 183.375 94.8676 182.634C94.4334 181.892 94.1548 181.07 94.0486 180.218C93.9424 179.367 94.0107 178.502 94.2496 177.677L110.622 122.681C111.016 121.169 111.963 119.859 113.276 119.006L156.477 96.8752C157.523 96.2703 158.718 95.9681 159.927 96.0027L171.5 101L185.5 103L202 101L217.006 96.0027C218.231 96.01 219.429 96.368 220.456 97.0339L263.683 119.164C264.989 120.025 265.934 121.332 266.337 122.84L282.71 177.836C282.948 178.662 283.015 179.529 282.908 180.382C282.8 181.236 282.519 182.058 282.082 182.8C281.645 183.542 281.061 184.188 280.367 184.698C279.672 185.208 278.88 185.572 278.039 185.768L248.345 192.642" stroke="white" stroke-width="6" stroke-miterlimit="10"/>
<path d="M128.618 172.929L118 256.5C117.991 261.91 124.901 262.921 128.618 266.857C132.336 270.794 143.196 273.355 148.607 273.666C161.369 276 174.312 277.204 187.286 277.264H189.698C202.678 277.141 215.621 275.875 228.377 273.481C233.783 273.163 238.863 270.793 242.575 266.857C246.286 262.921 260.509 257.902 260.5 252.497L248.339 172.929" fill="white"/>
<path d="M128.618 172.929L118 256.5C117.991 261.91 124.901 262.921 128.618 266.857C132.336 270.794 143.196 273.355 148.607 273.666C161.369 276 174.312 277.204 187.286 277.264H189.698C202.678 277.141 215.621 275.875 228.377 273.481C233.783 273.163 238.863 270.793 242.575 266.857C246.286 262.921 260.509 257.902 260.5 252.497L248.339 172.929" stroke="white" stroke-width="6" stroke-miterlimit="10" stroke-linecap="round"/>
<path d="M212.987 101C213.094 103.595 212.541 106.181 211.358 108.604C210.176 111.026 208.39 113.236 206.105 115.102C203.821 116.968 201.085 118.451 198.061 119.465C195.036 120.478 191.785 121 188.5 121C185.215 121 181.964 120.478 178.939 119.465C175.915 118.451 173.179 116.968 170.895 115.102C168.61 113.236 166.824 111.026 165.642 108.604C164.459 106.181 163.906 103.595 164.013 101" fill="white"/>
<path d="M212.987 101C213.094 103.595 212.541 106.181 211.358 108.604C210.176 111.026 208.39 113.236 206.105 115.102C203.821 116.968 201.085 118.451 198.061 119.465C195.036 120.478 191.785 121 188.5 121C185.215 121 181.964 120.478 178.939 119.465C175.915 118.451 173.179 116.968 170.895 115.102C168.61 113.236 166.824 111.026 165.642 108.604C164.459 106.181 163.906 103.595 164.013 101" stroke="white" stroke-width="6" stroke-miterlimit="10"/>
</svg>
