<svg width="37" height="37" viewBox="0 0 37 37" fill="none" xmlns="http://www.w3.org/2000/svg">
<circle cx="18.5" cy="18.5" r="18.5" fill="white"/>
<path d="M18.2778 10.7785C21.0219 10.7785 21.3474 10.7883 22.4317 10.836C25.217 10.9577 26.518 12.2264 26.6447 14.8805C26.6944 15.9206 26.7038 16.2331 26.7038 18.8675C26.7038 21.5027 26.6936 21.8143 26.6447 22.8544C26.5171 25.5061 25.2196 26.7773 22.4317 26.899C21.3474 26.9466 21.0237 26.9565 18.2778 26.9565C15.5336 26.9565 15.2081 26.9466 14.1247 26.899C11.3326 26.7764 10.0384 25.502 9.91167 22.8536C9.86199 21.8135 9.85171 21.5019 9.85171 18.8667C9.85171 16.2323 9.86285 15.9206 9.91167 14.8797C10.0393 12.2264 11.3369 10.9569 14.1247 10.8352C15.209 10.7883 15.5336 10.7785 18.2778 10.7785ZM18.2778 9C15.4865 9 15.1371 9.01151 14.0408 9.0592C10.3082 9.22364 8.23382 11.2118 8.06252 14.7983C8.01199 15.8516 8 16.187 8 18.8667C8 21.5463 8.01199 21.8826 8.06167 22.935C8.23296 26.5183 10.3039 28.5097 14.0399 28.6741C15.1371 28.7218 15.4865 28.7333 18.2778 28.7333C21.0691 28.7333 21.4194 28.7218 22.5156 28.6741C26.2448 28.5097 28.3243 26.5216 28.493 22.935C28.5436 21.8826 28.5556 21.5463 28.5556 18.8667C28.5556 16.187 28.5436 15.8516 28.4939 14.7991C28.326 11.2192 26.2525 9.22447 22.5165 9.06002C21.4194 9.01151 21.0691 9 18.2778 9ZM18.2778 13.8001C15.3632 13.8001 13.0001 16.0686 13.0001 18.8667C13.0001 21.6647 15.3632 23.934 18.2778 23.934C21.1924 23.934 23.5554 21.6655 23.5554 18.8667C23.5554 16.0686 21.1924 13.8001 18.2778 13.8001ZM18.2778 22.1556C16.3858 22.1556 14.8519 20.6838 14.8519 18.8667C14.8519 17.0504 16.3858 15.5778 18.2778 15.5778C20.1697 15.5778 21.7037 17.0504 21.7037 18.8667C21.7037 20.6838 20.1697 22.1556 18.2778 22.1556ZM23.7644 12.4163C23.0826 12.4163 22.5302 12.9467 22.5302 13.6003C22.5302 14.254 23.0826 14.7843 23.7644 14.7843C24.4453 14.7843 24.9969 14.254 24.9969 13.6003C24.9969 12.9467 24.4453 12.4163 23.7644 12.4163Z" fill="black"/>
</svg>
