<svg width="38" height="37" viewBox="0 0 38 37" fill="none" xmlns="http://www.w3.org/2000/svg">
<circle cx="19.0112" cy="18.5" r="18.5" fill="white"/>
<path fill-rule="evenodd" clip-rule="evenodd" d="M29.289 11.5111C29.289 10.1497 28.1837 9.04443 26.8223 9.04443H12.0223C10.6609 9.04443 9.55566 10.1497 9.55566 11.5111V26.3111C9.55566 27.6725 10.6609 28.7778 12.0223 28.7778H26.8223C28.1837 28.7778 29.289 27.6725 29.289 26.3111V11.5111Z" fill="black"/>
<path d="M15.2138 15.9297H11.9085V25.872H15.2138V15.9297Z" fill="white"/>
<path d="M13.5837 11.1361C12.4529 11.1361 11.714 11.8796 11.714 12.854C11.714 13.808 12.4304 14.572 13.54 14.572H13.5613C14.7138 14.572 15.4312 13.808 15.4312 12.854C15.4098 11.8796 14.7139 11.1361 13.5837 11.1361Z" fill="white"/>
<path d="M23.3258 15.6961C21.5726 15.6961 20.7872 16.6603 20.3475 17.3375V15.9299H17.043C17.0868 16.8625 17.043 25.8721 17.043 25.8721H20.3474V20.3197C20.3474 20.0225 20.3688 19.7253 20.4564 19.5129C20.6949 18.9194 21.239 18.3046 22.152 18.3046C23.3472 18.3046 23.826 19.2166 23.826 20.5526V25.8721H27.1306V20.1707C27.1306 17.1167 25.5001 15.6961 23.3258 15.6961Z" fill="white"/>
</svg>
