<svg width="50" height="48" viewBox="0 0 50 48" fill="none" xmlns="http://www.w3.org/2000/svg">
<path d="M29.7739 17.8176C29.6317 17.8176 29.4895 17.7653 29.3811 17.6613L26.5278 14.9221C26.3106 14.7136 26.3106 14.3765 26.5278 14.168L29.3811 11.4288C29.5983 11.2203 29.9495 11.2203 30.1667 11.4288C30.3839 11.6373 30.3839 11.9744 30.1667 12.1829L27.7061 14.5451L30.1667 16.9072C30.3839 17.1157 30.3839 17.4528 30.1667 17.6613C30.0578 17.7659 29.9161 17.8176 29.7739 17.8176Z" fill="white"/>
<path d="M49.4444 36.7269H0.555556C0.248889 36.7269 0 36.4885 0 36.1936V14.5451C0 14.2507 0.248889 14.0117 0.555556 14.0117H21.9439C22.2506 14.0117 22.4994 14.2507 22.4994 14.5451C22.4994 14.8395 22.2506 15.0784 21.9439 15.0784H1.11111V35.6603H48.8889V15.0784H26.9206C26.6133 15.0784 26.365 14.8395 26.365 14.5451C26.365 14.2507 26.6133 14.0117 26.9206 14.0117H49.4444C49.7517 14.0117 50 14.2507 50 14.5451V36.1936C50 36.4885 49.7517 36.7269 49.4444 36.7269Z" fill="white"/>
<path d="M25 31.5029C21.4772 31.5029 18.6111 28.7515 18.6111 25.3696C18.6111 21.9877 21.4772 19.2363 25 19.2363C28.5228 19.2363 31.3889 21.9877 31.3889 25.3696C31.3889 28.7515 28.5228 31.5029 25 31.5029ZM25 20.3029C22.09 20.3029 19.7222 22.576 19.7222 25.3696C19.7222 28.1632 22.09 30.4363 25 30.4363C27.91 30.4363 30.2778 28.1632 30.2778 25.3696C30.2778 22.576 27.91 20.3029 25 20.3029Z" fill="white"/>
<path d="M17.5495 31.5029H9.33167C9.02501 31.5029 8.77612 31.2645 8.77612 30.9696C8.77667 29.4656 7.51612 28.2554 5.96667 28.2554C5.66001 28.2554 5.41112 28.017 5.41112 27.7221V23.0165C5.41112 22.7221 5.66001 22.4832 5.96667 22.4832C7.50834 22.4832 8.76834 21.2789 8.77612 19.7989C8.77778 19.5056 9.02612 19.2682 9.33167 19.2682H17.5495C17.8561 19.2682 18.105 19.5072 18.105 19.8016C18.105 20.096 17.8561 20.3349 17.5495 20.3349H9.84556C9.59334 21.9754 8.23167 23.2773 6.52223 23.512V27.2261C8.24667 27.4618 9.61334 28.7787 9.85112 30.4363H17.5495C17.8561 30.4363 18.105 30.6747 18.105 30.9696C18.105 31.2645 17.8567 31.5029 17.5495 31.5029Z" fill="white"/>
<path d="M40.6678 31.5029H32.4506C32.1433 31.5029 31.895 31.2645 31.895 30.9696C31.895 30.6747 32.1433 30.4363 32.4506 30.4363H40.1511C40.3956 28.7861 41.7595 27.4779 43.4772 27.2427V23.5285C41.7589 23.2939 40.3956 21.9851 40.1511 20.3355H32.4506C32.1433 20.3355 31.895 20.0965 31.895 19.8021C31.895 19.5077 32.1433 19.2688 32.4506 19.2688H40.6678C40.975 19.2688 41.2233 19.5077 41.2233 19.8021C41.2233 21.2896 42.4839 22.4997 44.0333 22.4997C44.3406 22.4997 44.5889 22.7387 44.5889 23.0331V27.7387C44.5889 28.0336 44.3406 28.272 44.0333 28.272C42.4839 28.272 41.2233 29.4827 41.2233 30.9701C41.2233 31.2645 40.975 31.5029 40.6678 31.5029Z" fill="white"/>
</svg>
