<svg width="28" height="37" viewBox="0 0 28 37" fill="none" xmlns="http://www.w3.org/2000/svg">
<path d="M21.0381 34.8531C4.14634 28.2986 -0.988134 20.7566 2.32665 2.45118C2.43151 1.87208 2.93761 1.44389 3.52611 1.43851L10.4562 1.37511C11.0825 1.36938 11.6143 1.83248 11.6948 2.4536L12.5905 9.36907C12.6547 9.86451 12.4146 10.3499 11.982 10.5997L8.61548 12.5434C8.21079 12.777 7.97033 13.2211 8.00635 13.687C8.39843 18.7578 9.74653 21.1719 13.9165 23.846C14.2523 24.0614 14.6743 24.0922 15.0418 23.9372L18.8778 22.3188C19.2869 22.1461 19.7572 22.206 20.1101 22.4756L25.7361 26.7739C26.2338 27.1542 26.3689 27.8463 26.0508 28.3858L22.5453 34.3312C22.24 34.8491 21.5986 35.0706 21.0381 34.8531Z" stroke="#F7F7F7" stroke-width="2.75" stroke-linecap="round"/>
</svg>
