<svg width="52" height="24" viewBox="0 0 52 24" fill="none" xmlns="http://www.w3.org/2000/svg">
<g id="icon-adidas-rupay">
<g id="Vector">
<path d="M29.1337 8.68432C29.3589 6.82055 27.9179 6.04037 26.0718 6.04037C25.2162 6.04037 21.2537 6.04037 21.2537 6.04037L18.4168 16.0094H21.4788L22.3344 12.932H24.7659C24.7659 12.9753 28.5483 13.1487 29.1337 8.68432ZM25.9817 9.68122C25.5764 10.7648 24.4957 10.6348 24.4957 10.6348H23.0098L23.5952 8.51095C23.5952 8.51095 24.5408 8.51095 25.1712 8.51095C25.8916 8.51095 26.2068 9.11775 25.9817 9.68122Z" fill="#2F2F85"/>
<path d="M11.6175 8.81431H14.4093L13.2385 13.062C13.2385 13.062 12.9683 14.0155 13.8689 14.1022C14.5894 14.1455 15.1297 13.322 15.3098 12.7586C15.535 12.0217 16.4356 8.81431 16.4356 8.81431H19.3624L17.156 16.0527H14.6344L14.9496 15.0124C14.9496 15.0124 13.6888 16.5294 11.7526 16.3561C10.0415 16.1827 9.90637 15.0124 10.2216 13.5387C10.4017 12.8019 11.6175 8.81431 11.6175 8.81431Z" fill="#2F2F85"/>
<path d="M35.8881 12.4552C36.2483 11.2416 36.6986 10.1146 36.3384 9.46448C35.753 8.51093 34.7173 8.42424 33.2314 8.42424C31.5653 8.42424 29.494 8.72765 28.8185 10.8515C29.8542 10.8515 31.6103 10.8515 31.6103 10.8515C31.6103 10.8515 31.8805 10.0279 32.9162 10.1146C33.8618 10.158 33.7717 10.7648 33.4565 11.1115C32.8711 11.7183 31.2051 11.3716 29.3589 11.9784C27.7378 12.4985 27.1975 14.5357 27.5577 15.3592C27.8729 16.1394 28.5033 16.2261 29.3589 16.3127C30.7097 16.4428 31.7454 15.7059 32.2407 15.2725C32.2407 15.7493 32.2407 16.0093 32.2407 16.0093H35.1676V15.7493C35.1676 15.7493 34.8974 15.6626 34.9425 15.3158C34.9875 15.0991 35.4828 13.8422 35.8881 12.4552ZM31.7004 14.579C31.2051 14.709 30.6647 14.7524 30.5296 14.3623C30.2144 13.2354 33.0062 12.8886 33.0062 12.8886C33.0062 13.8855 32.0606 14.4923 31.7004 14.579Z" fill="#2F2F85"/>
<path d="M10.942 8.38092C11.1672 6.51715 9.50111 6.04037 7.65492 6.04037C6.79937 6.04037 2.83682 6.04037 2.83682 6.04037L0 16.0527H3.06197L4.00758 12.6719H5.71868C5.71868 12.6719 6.43914 12.6286 6.43914 13.2787C6.43914 13.9722 5.89879 15.2292 5.94382 16.0527C6.34908 16.0527 9.09585 16.0527 9.09585 16.0527V15.7926C9.09585 15.7926 8.82567 15.7059 8.8707 15.3592C8.8707 15.2292 9.05082 14.7524 9.27596 14.1022C9.41105 13.8422 9.59117 13.1487 9.59117 12.6286C9.54614 11.9784 9.14088 11.6317 8.51047 11.415C10.4467 11.0249 10.942 8.38092 10.942 8.38092ZM7.69995 9.68122C7.29469 10.5481 6.07891 10.4614 6.07891 10.4614H4.63798L5.17833 8.59763C5.17833 8.59763 6.43914 8.59763 7.06955 8.59763C7.74498 8.55429 7.97012 9.07441 7.69995 9.68122Z" fill="#2F2F85"/>
<path d="M37.2389 8.81431H40.0758V13.1486L42.5524 8.81431H45.164L39.8956 17.5697C39.8956 17.5697 39.4003 18.3065 38.8149 18.6966C38.3196 19 37.6892 19 37.5091 19C36.4734 19 35.2126 19 35.2126 19L35.798 16.9195H36.7886C36.7886 16.9195 37.2389 16.8762 37.4191 16.6595C37.5992 16.4427 37.6892 16.2694 37.6892 15.966C37.6442 15.5325 37.2389 8.81431 37.2389 8.81431Z" fill="#2F2F85"/>
<path d="M48.7663 7.12392L45.5243 18.0898L51.6482 12.6285L48.7663 7.12392Z" fill="#0F8147"/>
<path d="M46.695 7.12392L43.4079 18.0898L49.5318 12.6285L46.695 7.12392Z" fill="#EF7422"/>
</g>
</g>
</svg>
