<svg width="50" height="50" viewBox="0 0 50 50" fill="none" xmlns="http://www.w3.org/2000/svg">
<path d="M25 50C24.9361 50 24.8717 49.9889 24.8083 49.9655C11.0311 44.905 3.40999 32.0739 2.15499 11.8289C2.13833 11.5583 2.31944 11.315 2.58333 11.2533C8.88166 9.78888 14.4583 7.4911 19.1572 4.42332C19.4144 4.25555 19.7583 4.32777 19.9261 4.58499C20.0939 4.84221 20.0217 5.18666 19.7644 5.35388C15.0711 8.41777 9.53166 10.7294 3.29388 12.2272C4.61833 31.9917 11.7839 43.9983 25.1911 48.9233C25.4794 49.0289 25.6267 49.3483 25.5211 49.6361C25.4389 49.8605 25.2261 50 25 50Z" fill="white"/>
<path d="M25 50C24.8878 50 24.7767 49.9655 24.6822 49.9C24.5333 49.7961 24.4445 49.6261 24.4445 49.4444V36.0144C24.4445 35.7072 24.6933 35.4589 25 35.4589C25.3067 35.4589 25.5556 35.7072 25.5556 36.0144V48.6389C38.4817 43.5456 45.4061 31.6206 46.7056 12.2272C38.2211 10.1906 31.115 6.68944 25.5556 1.80889V9.42389C25.5556 9.73055 25.3067 9.97944 25 9.97944C24.6933 9.97944 24.4445 9.73055 24.4445 9.42389V0.555553C24.4445 0.334442 24.5756 0.133887 24.7789 0.0461088C24.9822 -0.041669 25.2183 -0.00111342 25.3795 0.150553C31.0211 5.43 38.435 9.16611 47.4167 11.2539C47.6811 11.3156 47.8622 11.5589 47.845 11.8294C46.59 32.0739 38.9689 44.9056 25.1917 49.9656C25.1295 49.9883 25.0645 50 25 50Z" fill="white"/>
<path d="M25 36.57C22.2845 36.57 19.6445 35.6111 17.565 33.8711C17.33 33.6744 17.2989 33.3239 17.4956 33.0889C17.6922 32.8533 18.0422 32.8217 18.2783 33.0194C20.1578 34.5928 22.545 35.4594 25 35.4594C30.7767 35.4594 35.4761 30.76 35.4761 24.9833C35.4761 19.2067 30.7767 14.5061 25 14.5061C19.2233 14.5061 14.5233 19.2055 14.5233 24.9828C14.5233 25.2894 14.2745 25.5383 13.9678 25.5383C13.6611 25.5383 13.4122 25.2894 13.4122 24.9828C13.4122 18.5933 18.6106 13.395 25 13.395C31.3895 13.395 36.5872 18.5933 36.5872 24.9828C36.5872 31.3722 31.3895 36.57 25 36.57Z" fill="white"/>
<path d="M24.2883 29.2605C24.1289 29.2605 23.9766 29.1917 23.8716 29.0722L20.2594 24.9672C20.0566 24.7367 20.0789 24.3861 20.3094 24.1833C20.54 23.98 20.8911 24.0033 21.0933 24.2333L24.2855 27.86L30.3755 20.8228C30.5755 20.5905 30.9272 20.5661 31.1589 20.7661C31.3911 20.9672 31.4161 21.3178 31.2155 21.55L24.7083 29.0683C24.6033 29.19 24.4511 29.26 24.2905 29.2605C24.29 29.2605 24.2889 29.2605 24.2883 29.2605Z" fill="white"/>
</svg>
