<svg width="52" height="24" viewBox="0 0 52 24" fill="none" xmlns="http://www.w3.org/2000/svg">
<g id="icon-adidas-upi">
<g id="Vector">
<path fill-rule="evenodd" clip-rule="evenodd" d="M42.1118 17.6087L48.6498 11.9285L45.5529 6.05222L42.1118 17.6087Z" fill="#097939"/>
<path fill-rule="evenodd" clip-rule="evenodd" d="M39.9096 17.6087L46.4476 11.9285L43.3507 6.05222L39.9096 17.6087Z" fill="#ED752E"/>
<path fill-rule="evenodd" clip-rule="evenodd" d="M8.66468 6.11789L5.91197 15.4545L15.6843 15.5197L18.3686 6.11789H20.846L17.6277 17.0479C17.5044 17.4652 17.0351 17.8044 16.58 17.8044H4.05401C3.29439 17.8044 2.84428 17.2392 3.0497 16.5435L6.11923 6.11789H8.66468ZM38.8769 6.05267H41.3544L37.9133 17.8044H35.366L38.8769 6.05267ZM21.1217 10.949L33.5094 10.8838L34.3357 8.40257H21.7407L22.4976 6.11745L35.9188 6.00007C36.7542 5.99267 37.2518 6.60874 37.0318 7.37696L35.7672 11.7785C35.5468 12.5463 34.6899 13.1685 33.8545 13.1685H22.7734L21.4668 18H19.0565L21.1217 10.949Z" fill="#747474"/>
</g>
</g>
</svg>
